<svg width="312" height="51" viewBox="0 0 312 51" fill="none" xmlns="http://www.w3.org/2000/svg">
<path d="M7.64785 20.496H24.7789V27.1241H7.64785V20.496ZM8.25967 40.1253H7.87978e-05V4.43572H26.9712V11.0638H8.25967V40.1253ZM32.002 40.1253V12.6953H39.9557V40.1253H32.002ZM35.9789 8.87143C34.5173 8.87143 33.3276 8.44656 32.4099 7.5968C31.4922 6.74705 31.0333 5.69336 31.0333 4.43572C31.0333 3.17809 31.4922 2.1244 32.4099 1.27464C33.3276 0.424891 34.5173 1.40609e-05 35.9789 1.40609e-05C37.4404 1.40609e-05 38.6301 0.407896 39.5478 1.22366C40.4656 2.00543 40.9244 3.02514 40.9244 4.28277C40.9244 5.60838 40.4656 6.71306 39.5478 7.5968C38.6641 8.44656 37.4744 8.87143 35.9789 8.87143ZM60.2367 50.4243C57.6534 50.4243 55.1551 50.1014 52.7418 49.4556C50.3625 48.8438 48.3741 47.9091 46.7766 46.6514L49.9377 40.9411C51.0933 41.8928 52.5549 42.6406 54.3224 43.1844C56.1239 43.7623 57.8913 44.0512 59.6248 44.0512C62.446 44.0512 64.4854 43.4224 65.7431 42.1647C67.0347 40.9071 67.6805 39.0377 67.6805 36.5564V32.4266L68.1903 25.5436L68.0884 18.6096V12.6953H75.6342V35.5367C75.6342 40.6352 74.3086 44.3911 71.6573 46.8044C69.0061 49.2177 65.1992 50.4243 60.2367 50.4243ZM59.013 38.7997C56.4638 38.7997 54.1524 38.2559 52.079 37.1682C50.0396 36.0465 48.3911 34.5 47.1335 32.5285C45.9098 30.5231 45.298 28.1948 45.298 25.5436C45.298 22.8584 45.9098 20.53 47.1335 18.5586C48.3911 16.5532 50.0396 15.0066 52.079 13.919C54.1524 12.8313 56.4638 12.2874 59.013 12.2874C61.3243 12.2874 63.3637 12.7633 65.1312 13.715C66.8987 14.6328 68.2753 16.0773 69.261 18.0488C70.2467 19.9862 70.7396 22.4845 70.7396 25.5436C70.7396 28.5687 70.2467 31.067 69.261 33.0384C68.2753 34.9758 66.8987 36.4204 65.1312 37.3721C63.3637 38.3239 61.3243 38.7997 59.013 38.7997ZM60.5936 32.2736C61.9871 32.2736 63.2278 32.0017 64.3155 31.4579C65.4031 30.88 66.2529 30.0813 66.8647 29.0616C67.4765 28.0419 67.7825 26.8692 67.7825 25.5436C67.7825 24.184 67.4765 23.0113 66.8647 22.0256C66.2529 21.0059 65.4031 20.2241 64.3155 19.6803C63.2278 19.1025 61.9871 18.8135 60.5936 18.8135C59.2 18.8135 57.9593 19.1025 56.8716 19.6803C55.784 20.2241 54.9172 21.0059 54.2714 22.0256C53.6596 23.0113 53.3537 24.184 53.3537 25.5436C53.3537 26.8692 53.6596 28.0419 54.2714 29.0616C54.9172 30.0813 55.784 30.88 56.8716 31.4579C57.9593 32.0017 59.2 32.2736 60.5936 32.2736ZM118.166 12.2874C120.341 12.2874 122.262 12.7293 123.927 13.6131C125.627 14.4628 126.952 15.7884 127.904 17.5899C128.89 19.3574 129.382 21.6347 129.382 24.4219V40.1253H121.429V25.6456C121.429 23.4362 120.97 21.8047 120.052 20.751C119.134 19.6973 117.843 19.1704 116.177 19.1704C115.022 19.1704 113.985 19.4424 113.067 19.9862C112.149 20.496 111.436 21.2778 110.926 22.3315C110.416 23.3852 110.161 24.7278 110.161 26.3593V40.1253H102.207V25.6456C102.207 23.4362 101.749 21.8047 100.831 20.751C99.9471 19.6973 98.6724 19.1704 97.0069 19.1704C95.8512 19.1704 94.8145 19.4424 93.8968 19.9862C92.9791 20.496 92.2653 21.2778 91.7554 22.3315C91.2456 23.3852 90.9907 24.7278 90.9907 26.3593V40.1253H83.037V12.6953H90.6338V20.1901L89.2062 17.9978C90.1579 16.1283 91.5005 14.7177 93.234 13.766C95.0015 12.7803 97.0069 12.2874 99.2503 12.2874C101.766 12.2874 103.958 12.9333 105.827 14.2249C107.731 15.4825 108.988 17.4199 109.6 20.0372L106.796 19.2724C107.714 17.131 109.175 15.4315 111.181 14.1739C113.22 12.9163 115.549 12.2874 118.166 12.2874ZM153.337 40.1253V34.7719L152.827 33.5992V24.014C152.827 22.3145 152.3 20.9889 151.246 20.0372C150.227 19.0855 148.646 18.6096 146.505 18.6096C145.043 18.6096 143.599 18.8475 142.171 19.3234C140.777 19.7653 139.588 20.3771 138.602 21.1589L135.747 15.6015C137.242 14.5478 139.044 13.732 141.151 13.1542C143.259 12.5764 145.4 12.2874 147.575 12.2874C151.756 12.2874 155.002 13.2732 157.314 15.2446C159.625 17.216 160.781 20.2921 160.781 24.4729V40.1253H153.337ZM144.975 40.5332C142.834 40.5332 140.998 40.1763 139.469 39.4625C137.939 38.7147 136.767 37.712 135.951 36.4544C135.135 35.1968 134.727 33.7862 134.727 32.2226C134.727 30.5911 135.118 29.1635 135.9 27.9399C136.716 26.7162 137.99 25.7645 139.724 25.0847C141.457 24.3709 143.718 24.014 146.505 24.014H153.796V28.6537H147.371C145.502 28.6537 144.21 28.9596 143.497 29.5714C142.817 30.1832 142.477 30.948 142.477 31.8657C142.477 32.8854 142.868 33.7012 143.65 34.313C144.465 34.8909 145.57 35.1798 146.964 35.1798C148.289 35.1798 149.479 34.8739 150.533 34.262C151.586 33.6162 152.351 32.6815 152.827 31.4579L154.051 35.1288C153.473 36.8963 152.419 38.2389 150.889 39.1566C149.36 40.0744 147.388 40.5332 144.975 40.5332ZM182.979 40.1253V4.43572H199.192C203.067 4.43572 206.483 5.18351 209.44 6.67907C212.397 8.14065 214.709 10.197 216.374 12.8483C218.04 15.4995 218.873 18.6436 218.873 22.2805C218.873 25.8835 218.04 29.0276 216.374 31.7128C214.709 34.364 212.397 36.4374 209.44 37.933C206.483 39.3945 203.067 40.1253 199.192 40.1253H182.979ZM191.239 33.3443H198.784C201.164 33.3443 203.22 32.9024 204.954 32.0187C206.721 31.101 208.081 29.8093 209.032 28.1438C210.018 26.4783 210.511 24.5239 210.511 22.2805C210.511 20.0032 210.018 18.0488 209.032 16.4172C208.081 14.7517 206.721 13.4771 204.954 12.5933C203.22 11.6756 201.164 11.2168 198.784 11.2168H191.239V33.3443ZM241.366 40.1253V34.7719L240.856 33.5992V24.014C240.856 22.3145 240.329 20.9889 239.275 20.0372C238.256 19.0855 236.675 18.6096 234.534 18.6096C233.072 18.6096 231.628 18.8475 230.2 19.3234C228.806 19.7653 227.617 20.3771 226.631 21.1589L223.776 15.6015C225.271 14.5478 227.073 13.732 229.18 13.1542C231.288 12.5764 233.429 12.2874 235.604 12.2874C239.785 12.2874 243.031 13.2732 245.343 15.2446C247.654 17.216 248.81 20.2921 248.81 24.4729V40.1253H241.366ZM233.004 40.5332C230.863 40.5332 229.027 40.1763 227.498 39.4625C225.968 38.7147 224.796 37.712 223.98 36.4544C223.164 35.1968 222.756 33.7862 222.756 32.2226C222.756 30.5911 223.147 29.1635 223.929 27.9399C224.745 26.7162 226.019 25.7645 227.753 25.0847C229.486 24.3709 231.747 24.014 234.534 24.014H241.825V28.6537H235.401C233.531 28.6537 232.239 28.9596 231.526 29.5714C230.846 30.1832 230.506 30.948 230.506 31.8657C230.506 32.8854 230.897 33.7012 231.679 34.313C232.494 34.8909 233.599 35.1798 234.993 35.1798C236.318 35.1798 237.508 34.8739 238.562 34.262C239.615 33.6162 240.38 32.6815 240.856 31.4579L242.08 35.1288C241.502 36.8963 240.448 38.2389 238.919 39.1566C237.389 40.0744 235.418 40.5332 233.004 40.5332ZM265.236 40.5332C262.891 40.5332 260.631 40.2613 258.455 39.7175C256.314 39.1396 254.614 38.4258 253.357 37.5761L256.008 31.8657C257.266 32.6475 258.744 33.2933 260.444 33.8032C262.177 34.279 263.877 34.517 265.542 34.517C267.378 34.517 268.669 34.296 269.417 33.8542C270.199 33.4123 270.59 32.8005 270.59 32.0187C270.59 31.3729 270.284 30.897 269.672 30.5911C269.094 30.2512 268.313 29.9963 267.327 29.8263C266.341 29.6564 265.253 29.4864 264.064 29.3165C262.908 29.1465 261.735 28.9256 260.546 28.6537C259.356 28.3478 258.268 27.9059 257.283 27.3281C256.297 26.7502 255.498 25.9685 254.886 24.9827C254.309 23.997 254.02 22.7224 254.02 21.1589C254.02 19.4254 254.513 17.8958 255.498 16.5702C256.518 15.2446 257.98 14.2079 259.883 13.4601C261.786 12.6783 264.064 12.2874 266.715 12.2874C268.584 12.2874 270.488 12.4914 272.425 12.8993C274.363 13.3071 275.977 13.902 277.269 14.6837L274.618 20.3431C273.292 19.5613 271.949 19.0345 270.59 18.7626C269.264 18.4566 267.973 18.3037 266.715 18.3037C264.947 18.3037 263.656 18.5416 262.84 19.0175C262.024 19.4933 261.616 20.1052 261.616 20.8529C261.616 21.5327 261.905 22.0426 262.483 22.3825C263.095 22.7224 263.894 22.9943 264.88 23.1983C265.865 23.4022 266.936 23.5891 268.092 23.7591C269.281 23.8951 270.471 24.116 271.661 24.4219C272.85 24.7278 273.921 25.1697 274.873 25.7475C275.858 26.2914 276.657 27.0561 277.269 28.0419C277.881 28.9936 278.187 30.2512 278.187 31.8148C278.187 33.5143 277.677 35.0268 276.657 36.3524C275.637 37.6441 274.159 38.6638 272.221 39.4115C270.318 40.1593 267.99 40.5332 265.236 40.5332ZM299.766 12.2874C301.941 12.2874 303.879 12.7293 305.578 13.6131C307.312 14.4628 308.672 15.7884 309.657 17.5899C310.643 19.3574 311.136 21.6347 311.136 24.4219V40.1253H303.182V25.6456C303.182 23.4362 302.689 21.8047 301.704 20.751C300.752 19.6973 299.392 19.1704 297.625 19.1704C296.367 19.1704 295.228 19.4424 294.209 19.9862C293.223 20.496 292.441 21.2948 291.863 22.3825C291.32 23.4702 291.048 24.8638 291.048 26.5633V40.1253H283.094V2.29435H291.048V20.2921L289.263 17.9978C290.249 16.1623 291.659 14.7517 293.495 13.766C295.33 12.7803 297.421 12.2874 299.766 12.2874Z" fill="#B84B7A"/>
</svg>
